<svg xmlns="http://www.w3.org/2000/svg" xmlns:xlink="http://www.w3.org/1999/xlink" width="20" height="20" viewBox="0 0 20 20">
    <defs>
        <path id="a" d="M.618.207h6.354v5.235H.618z"/>
        <path id="c" d="M0 .488h7.813V17H0z"/>
    </defs>
    <g fill="none" fill-rule="evenodd">
        <path fill="#ADB5BD" d="M4.53 18.27l8.861-4.993-2.175-2.498zM11.216 9.813l2.255-2.416-8.78-4.995z"/>
        <g transform="translate(11 7.512)">
            <mask id="b" fill="#fff">
                <use xlink:href="#a"/>
            </mask>
            <path fill="#ADB5BD" d="M6.498 2.14L3.035.207.618 2.865l2.255 2.577 3.544-2.013c.726-.323.726-.967.081-1.29" mask="url(#b)"/>
        </g>
        <g transform="translate(3 1.512)">
            <mask id="d" fill="#fff">
                <use xlink:href="#c"/>
            </mask>
            <path fill="#ADB5BD" d="M0 1.293v14.901c0 .484.16.725.483.806l7.33-8.216L.483.487C.16.648 0 .89 0 1.293" mask="url(#d)"/>
        </g>
    </g>
</svg>
