<svg xmlns="http://www.w3.org/2000/svg" width="20" height="20" viewBox="0 0 20 20">
    <g fill="#ADB5BD" fill-rule="evenodd">
        <path d="M17.313 13.96a3.355 3.355 0 0 1-3.352 3.352H5.94a3.355 3.355 0 0 1-3.352-3.351V5.94A3.355 3.355 0 0 1 5.94 2.588h8.02a3.356 3.356 0 0 1 3.352 3.352v8.02zM13.96 1H5.94A4.946 4.946 0 0 0 1 5.94v8.02a4.945 4.945 0 0 0 4.94 4.94h8.02a4.945 4.945 0 0 0 4.94-4.94V5.94A4.945 4.945 0 0 0 13.96 1z"/>
        <path d="M10.113 13.137a3.028 3.028 0 0 1-3.025-3.025 3.028 3.028 0 0 1 3.025-3.024 3.028 3.028 0 0 1 3.024 3.024 3.028 3.028 0 0 1-3.024 3.025m0-7.637A4.618 4.618 0 0 0 5.5 10.113a4.618 4.618 0 0 0 4.613 4.612 4.618 4.618 0 0 0 4.612-4.612A4.618 4.618 0 0 0 10.113 5.5M14.704 4.375a1.004 1.004 0 0 0-1 1c0 .263.108.52.294.707.186.186.444.293.706.293.264 0 .521-.107.708-.293a1.004 1.004 0 0 0 0-1.415 1.004 1.004 0 0 0-.708-.292"/>
    </g>
</svg>
